<mxfile host="app.diagrams.net" agent="Mozilla/5.0 (Macintosh; Intel Mac OS X 10_15_7) AppleWebKit/537.36 (KHTML, like Gecko) Chrome/133.0.0.0 Safari/537.36" version="26.0.16">
  <diagram name="Page-1" id="9361dd3d-8414-5efd-6122-117bd74ce7a7">
    <mxGraphModel dx="3644" dy="1516" grid="1" gridSize="10" guides="1" tooltips="1" connect="1" arrows="1" fold="1" page="0" pageScale="1.5" pageWidth="826" pageHeight="1169" background="none" math="0" shadow="0">
      <root>
        <mxCell id="0" />
        <mxCell id="1" parent="0" />
        <mxCell id="3lxVymx66JOfYg7nJAj3-113" value="Extensibility HLD Flow" style="shape=umlFrame;whiteSpace=wrap;html=1;width=120;height=30;boundedLbl=1;verticalAlign=middle;align=left;spacingLeft=5;fillColor=#f5f5f5;fontColor=#333333;strokeColor=#666666;" parent="1" vertex="1">
          <mxGeometry x="-1380" y="-480" width="1260" height="650" as="geometry" />
        </mxCell>
        <mxCell id="69" value="" style="fillColor=#DEE8FF;strokeColor=none" parent="1" vertex="1">
          <mxGeometry x="40" y="10" width="1570" height="800" as="geometry" />
        </mxCell>
        <mxCell id="20" value="" style="fillColor=#CCD5EB" parent="1" vertex="1">
          <mxGeometry x="140" y="410" width="1460" height="390" as="geometry" />
        </mxCell>
        <mxCell id="81" value="" style="edgeStyle=elbowEdgeStyle;elbow=horizontal;endArrow=none;dashed=1" parent="1" edge="1">
          <mxGeometry x="1460" y="437.8935185185186" width="100" height="100" as="geometry">
            <mxPoint x="1354.5" y="610" as="sourcePoint" />
            <mxPoint x="1354.5" y="770" as="targetPoint" />
          </mxGeometry>
        </mxCell>
        <mxCell id="2" value="" style="fillColor=#CC4125;strokeColor=#660000" parent="1" vertex="1">
          <mxGeometry x="200" y="150" width="10" height="130" as="geometry" />
        </mxCell>
        <mxCell id="3" value="validate()" style="edgeStyle=none;verticalLabelPosition=top;verticalAlign=bottom;labelPosition=left;align=right" parent="1" edge="1">
          <mxGeometry x="110" y="49.5" width="100" height="100" as="geometry">
            <mxPoint x="110" y="149.5" as="sourcePoint" />
            <mxPoint x="200" y="149.5" as="targetPoint" />
          </mxGeometry>
        </mxCell>
        <mxCell id="4" value=":dialog" style="shadow=1;fillColor=#A2C4C9;strokeColor=none" parent="1" vertex="1">
          <mxGeometry x="152.5" y="60" width="105" height="50" as="geometry" />
        </mxCell>
        <mxCell id="6" value="" style="fillColor=#CC4125;strokeColor=#660000" parent="1" vertex="1">
          <mxGeometry x="342.5" y="180" width="10" height="80" as="geometry" />
        </mxCell>
        <mxCell id="7" value="&lt;&lt;javascript&gt;&gt;&#xa;:Comments" style="shadow=1;fillColor=#A2C4C9;strokeColor=none" parent="1" vertex="1">
          <mxGeometry x="295" y="60" width="105" height="50" as="geometry" />
        </mxCell>
        <mxCell id="8" value="" style="edgeStyle=none;endArrow=none;dashed=1" parent="1" source="7" target="6" edge="1">
          <mxGeometry x="272.3350694444445" y="165" width="100" height="100" as="geometry">
            <mxPoint x="347.2588734567901" y="110" as="sourcePoint" />
            <mxPoint x="347.5761959876544" y="165" as="targetPoint" />
          </mxGeometry>
        </mxCell>
        <mxCell id="9" value="validate()" style="edgeStyle=none;verticalLabelPosition=top;verticalAlign=bottom" parent="1" edge="1">
          <mxGeometry x="220" y="92" width="100" height="100" as="geometry">
            <mxPoint x="210" y="179.5" as="sourcePoint" />
            <mxPoint x="340" y="179.5" as="targetPoint" />
          </mxGeometry>
        </mxCell>
        <mxCell id="11" value="" style="edgeStyle=none;verticalLabelPosition=top;verticalAlign=bottom;endArrow=none;startArrow=classic;dashed=1" parent="1" edge="1">
          <mxGeometry x="220" y="172.25887345679013" width="100" height="100" as="geometry">
            <mxPoint x="210" y="259.7588734567901" as="sourcePoint" />
            <mxPoint x="340" y="259.7588734567901" as="targetPoint" />
          </mxGeometry>
        </mxCell>
        <mxCell id="12" value="" style="edgeStyle=none;verticalLabelPosition=top;verticalAlign=bottom;labelPosition=left;align=right;endArrow=none;startArrow=classic;dashed=1" parent="1" edge="1">
          <mxGeometry x="110" y="179.75887345679013" width="100" height="100" as="geometry">
            <mxPoint x="110" y="279.7588734567901" as="sourcePoint" />
            <mxPoint x="200" y="279.7588734567901" as="targetPoint" />
          </mxGeometry>
        </mxCell>
        <mxCell id="13" value="&lt;&lt;create&gt;&gt;" style="edgeStyle=none;verticalLabelPosition=top;verticalAlign=bottom;dashed=1" parent="1" edge="1">
          <mxGeometry x="385.45524691358025" y="113.91550925925924" width="100" height="100" as="geometry">
            <mxPoint x="352.5" y="201.20563271604937" as="sourcePoint" />
            <mxPoint x="462.5" y="201.20563271604937" as="targetPoint" />
          </mxGeometry>
        </mxCell>
        <mxCell id="15" value="&lt;&lt;javascript&gt;&gt;&#xa;:Proxy" style="shadow=1;fillColor=#A2C4C9;strokeColor=none" parent="1" vertex="1">
          <mxGeometry x="462.2839506172839" y="169.99999999999997" width="105" height="50" as="geometry" />
        </mxCell>
        <mxCell id="16" value="" style="edgeStyle=none;endArrow=none" parent="1" source="15" target="17" edge="1">
          <mxGeometry x="437.042824074074" y="270" width="100" height="100" as="geometry">
            <mxPoint x="514.542824074074" y="219.99999999999997" as="sourcePoint" />
            <mxPoint x="514.542824074074" y="239.99999999999997" as="targetPoint" />
          </mxGeometry>
        </mxCell>
        <mxCell id="17" value="" style="fillColor=#CC4125;strokeColor=#660000" parent="1" vertex="1">
          <mxGeometry x="509.7839506172839" y="244.3942901234568" width="10" height="130" as="geometry" />
        </mxCell>
        <mxCell id="19" value="&lt;&lt;ajax&gt;&gt;" style="edgeStyle=elbowEdgeStyle;elbow=vertical;verticalLabelPosition=top;verticalAlign=bottom" parent="1" source="6" target="17" edge="1">
          <mxGeometry x="350" y="290" width="100" height="100" as="geometry">
            <mxPoint x="350" y="390" as="sourcePoint" />
            <mxPoint x="450" y="290" as="targetPoint" />
          </mxGeometry>
        </mxCell>
        <mxCell id="21" value="" style="fillColor=#CC4125;strokeColor=#660000" parent="1" vertex="1">
          <mxGeometry x="670" y="269.3942901234568" width="10" height="80" as="geometry" />
        </mxCell>
        <mxCell id="22" value="&lt;&lt;servlet&gt;&gt;&#xa;:CVSServlet" style="shadow=1;fillColor=#A2C4C9;strokeColor=none" parent="1" vertex="1">
          <mxGeometry x="622.5" y="60" width="105" height="50" as="geometry" />
        </mxCell>
        <mxCell id="23" value="" style="edgeStyle=none;endArrow=none;dashed=1" parent="1" source="22" target="21" edge="1">
          <mxGeometry x="614.4878472222224" y="174.99999999999997" width="100" height="100" as="geometry">
            <mxPoint x="674.6527777777778" y="110" as="sourcePoint" />
            <mxPoint x="674.6527777777778" y="260" as="targetPoint" />
          </mxGeometry>
        </mxCell>
        <mxCell id="24" value="&lt;&lt;service&gt;&gt;&#xa;:CVSService" style="shadow=1;fillColor=#A2C4C9;strokeColor=none" parent="1" vertex="1">
          <mxGeometry x="750" y="60" width="105" height="50" as="geometry" />
        </mxCell>
        <mxCell id="25" value="" style="edgeStyle=none;endArrow=none;dashed=1" parent="1" source="24" target="26" edge="1">
          <mxGeometry x="727.3350694444446" y="165" width="100" height="100" as="geometry">
            <mxPoint x="802.2588734567901" y="110" as="sourcePoint" />
            <mxPoint x="802.5761959876544" y="165" as="targetPoint" />
          </mxGeometry>
        </mxCell>
        <mxCell id="26" value="" style="fillColor=#CC4125;strokeColor=#660000" parent="1" vertex="1">
          <mxGeometry x="797.4999999999999" y="289.3942901234568" width="10" height="40" as="geometry" />
        </mxCell>
        <mxCell id="27" value="&lt;&lt;ajax&gt;&gt;" style="edgeStyle=elbowEdgeStyle;elbow=vertical;verticalLabelPosition=top;verticalAlign=bottom" parent="1" source="17" target="21" edge="1">
          <mxGeometry x="540" y="270" width="100" height="100" as="geometry">
            <mxPoint x="540" y="370" as="sourcePoint" />
            <mxPoint x="640" y="270" as="targetPoint" />
            <Array as="points">
              <mxPoint x="590" y="270" />
            </Array>
          </mxGeometry>
        </mxCell>
        <mxCell id="28" value="errors" style="edgeStyle=elbowEdgeStyle;elbow=vertical;dashed=1;verticalLabelPosition=bottom;verticalAlign=top" parent="1" source="21" target="17" edge="1">
          <mxGeometry x="550" y="280" width="100" height="100" as="geometry">
            <mxPoint x="529.7839506172838" y="280" as="sourcePoint" />
            <mxPoint x="680" y="280" as="targetPoint" />
            <Array as="points">
              <mxPoint x="593" y="348" />
            </Array>
          </mxGeometry>
        </mxCell>
        <mxCell id="30" value="&lt;&lt;javascript&gt;&gt;&#xa;:GimqRequest&#xa;Batch" style="shadow=1;fillColor=#A2C4C9;strokeColor=none" parent="1" vertex="1">
          <mxGeometry x="952.5" y="60" width="105" height="50" as="geometry" />
        </mxCell>
        <mxCell id="33" value="" style="edgeStyle=elbowEdgeStyle;elbow=horizontal;endArrow=none;dashed=1" parent="1" source="4" target="2" edge="1">
          <mxGeometry x="230.00000000000003" y="310" width="100" height="100" as="geometry">
            <mxPoint x="230.00000000000003" y="410" as="sourcePoint" />
            <mxPoint x="330" y="310" as="targetPoint" />
          </mxGeometry>
        </mxCell>
        <mxCell id="34" value="validate()" style="edgeStyle=elbowEdgeStyle;elbow=vertical;verticalLabelPosition=top;verticalAlign=bottom" parent="1" edge="1">
          <mxGeometry x="550" y="261.7361111111111" width="100" height="100" as="geometry">
            <mxPoint x="680" y="291.1304012345679" as="sourcePoint" />
            <mxPoint x="797.4999999999999" y="291.1304012345679" as="targetPoint" />
            <Array as="points" />
          </mxGeometry>
        </mxCell>
        <mxCell id="35" value="errors" style="edgeStyle=elbowEdgeStyle;elbow=vertical;dashed=1;verticalLabelPosition=bottom;verticalAlign=top" parent="1" edge="1">
          <mxGeometry x="560" y="309.65277777777777" width="100" height="100" as="geometry">
            <mxPoint x="797.4999999999999" y="329.0470679012346" as="sourcePoint" />
            <mxPoint x="680" y="329.0470679012346" as="targetPoint" />
            <Array as="points" />
          </mxGeometry>
        </mxCell>
        <mxCell id="38" value="" style="edgeStyle=elbowEdgeStyle;elbow=horizontal;endArrow=none;dashed=1" parent="1" edge="1">
          <mxGeometry x="932.2588734567901" y="240" width="100" height="100" as="geometry">
            <mxPoint x="802.2588734567901" y="329.3942901234568" as="sourcePoint" />
            <mxPoint x="802.2588734567901" y="370" as="targetPoint" />
            <Array as="points">
              <mxPoint x="802.2588734567901" y="350" />
            </Array>
          </mxGeometry>
        </mxCell>
        <mxCell id="39" value="" style="ellipse;fillColor=none" parent="1" vertex="1">
          <mxGeometry x="802.5000000000001" y="304.3942901234568" width="9.999999999999886" height="10" as="geometry" />
        </mxCell>
        <mxCell id="40" value=" - user&#xa; validation&#xa;&#xa; - password check" style="shape=note;align=left" parent="1" vertex="1">
          <mxGeometry x="829.9729938271605" y="180.17361111111111" width="120.02700617283949" height="109.82638888888889" as="geometry" />
        </mxCell>
        <mxCell id="41" value="" style="edgeStyle=none;endArrow=none;dashed=1" parent="1" source="40" target="39" edge="1">
          <mxGeometry x="1030" y="180" width="100" height="100" as="geometry">
            <mxPoint x="1030" y="280" as="sourcePoint" />
            <mxPoint x="1130" y="180" as="targetPoint" />
          </mxGeometry>
        </mxCell>
        <mxCell id="42" value="" style="fillColor=#CC4125;strokeColor=#660000" parent="1" vertex="1">
          <mxGeometry x="200" y="360" width="10" height="220" as="geometry" />
        </mxCell>
        <mxCell id="43" value="             &lt;&lt;callback&gt;&gt;                                " style="edgeStyle=elbowEdgeStyle;elbow=vertical;dashed=0;verticalLabelPosition=top;verticalAlign=bottom;align=right" parent="1" source="17" target="42" edge="1">
          <mxGeometry x="190" y="329.75887345679007" width="100" height="100" as="geometry">
            <mxPoint x="500" y="310" as="sourcePoint" />
            <mxPoint x="220" y="370" as="targetPoint" />
            <Array as="points" />
          </mxGeometry>
        </mxCell>
        <mxCell id="44" value="" style="edgeStyle=none;dashed=1;endArrow=none" parent="1" source="2" target="42" edge="1">
          <mxGeometry x="50" y="300" width="100" height="100" as="geometry">
            <mxPoint x="50" y="400" as="sourcePoint" />
            <mxPoint x="150" y="300" as="targetPoint" />
          </mxGeometry>
        </mxCell>
        <mxCell id="46" value="" style="edgeStyle=elbowEdgeStyle;elbow=vertical;endArrow=none" parent="1" source="42" edge="1">
          <mxGeometry x="60" y="310" width="100" height="100" as="geometry">
            <mxPoint x="60" y="410" as="sourcePoint" />
            <mxPoint x="150" y="360" as="targetPoint" />
          </mxGeometry>
        </mxCell>
        <mxCell id="47" value="{100..600ms}" style="edgeStyle=elbowEdgeStyle;elbow=horizontal;startArrow=open;endArrow=open;labelPosition=left;align=right" parent="1" edge="1">
          <mxGeometry x="61.20563271604938" y="290" width="100" height="100" as="geometry">
            <mxPoint x="181.20563271604937" y="280" as="sourcePoint" />
            <mxPoint x="181.20563271604937" y="360" as="targetPoint" />
          </mxGeometry>
        </mxCell>
        <mxCell id="48" value="" style="fillColor=#CC4125;strokeColor=#660000" parent="1" vertex="1">
          <mxGeometry x="342.5" y="464.1666666666667" width="10" height="95.83333333333331" as="geometry" />
        </mxCell>
        <mxCell id="49" value="" style="fillColor=#CC4125;strokeColor=#660000" parent="1" vertex="1">
          <mxGeometry x="1000" y="468.3333333333333" width="10" height="81.66666666666669" as="geometry" />
        </mxCell>
        <mxCell id="50" value="" style="edgeStyle=none;endArrow=none;dashed=1" parent="1" source="30" target="49" edge="1">
          <mxGeometry x="956.5711805555559" y="205" width="100" height="100" as="geometry">
            <mxPoint x="1031.7361111111113" y="150" as="sourcePoint" />
            <mxPoint x="1031.7361111111113" y="329.3942901234568" as="targetPoint" />
          </mxGeometry>
        </mxCell>
        <mxCell id="51" value="post_comments()" style="edgeStyle=elbowEdgeStyle;elbow=vertical;verticalLabelPosition=top;verticalAlign=bottom" parent="1" edge="1">
          <mxGeometry x="212.5" y="469.58333333333337" width="100" height="100" as="geometry">
            <mxPoint x="210" y="469.58333333333337" as="sourcePoint" />
            <mxPoint x="342.5" y="469.58333333333337" as="targetPoint" />
            <Array as="points" />
          </mxGeometry>
        </mxCell>
        <mxCell id="52" value="" style="edgeStyle=none;endArrow=none;dashed=1" parent="1" source="6" target="48" edge="1">
          <mxGeometry x="376.5711805555559" y="339.6971450617284" width="100" height="100" as="geometry">
            <mxPoint x="451.7361111111112" y="284.6971450617284" as="sourcePoint" />
            <mxPoint x="451.7361111111112" y="464.0914351851852" as="targetPoint" />
          </mxGeometry>
        </mxCell>
        <mxCell id="53" value="BeginRequest()" style="edgeStyle=elbowEdgeStyle;elbow=vertical;verticalLabelPosition=top;verticalAlign=bottom" parent="1" edge="1">
          <mxGeometry x="530" y="436.8055555555556" width="100" height="100" as="geometry">
            <mxPoint x="352.5" y="477.56944444444446" as="sourcePoint" />
            <mxPoint x="1000" y="477.56944444444446" as="targetPoint" />
            <Array as="points" />
          </mxGeometry>
        </mxCell>
        <mxCell id="54" value="" style="edgeStyle=elbowEdgeStyle;elbow=vertical;dashed=1;verticalLabelPosition=bottom;verticalAlign=top" parent="1" edge="1">
          <mxGeometry x="530" y="549.0779320987654" width="100" height="100" as="geometry">
            <mxPoint x="1000" y="541.7361111111111" as="sourcePoint" />
            <mxPoint x="352.49999999999994" y="541.7361111111111" as="targetPoint" />
            <Array as="points" />
          </mxGeometry>
        </mxCell>
        <mxCell id="55" value="&lt;&lt;javascript&gt;&gt;&#xa;:Proxy" style="shadow=1;fillColor=#A2C4C9;strokeColor=none" parent="1" vertex="1">
          <mxGeometry x="1090" y="462.08333333333337" width="105" height="50" as="geometry" />
        </mxCell>
        <mxCell id="56" value="" style="edgeStyle=none;endArrow=none;dashed=1" parent="1" source="55" target="57" edge="1">
          <mxGeometry x="1204.0711805555559" y="380.08680555555554" width="100" height="100" as="geometry">
            <mxPoint x="1279.2361111111113" y="325.08680555555554" as="sourcePoint" />
            <mxPoint x="1350" y="445.08680555555554" as="targetPoint" />
          </mxGeometry>
        </mxCell>
        <mxCell id="57" value="" style="fillColor=#CC4125;strokeColor=#660000" parent="1" vertex="1">
          <mxGeometry x="1137.5" y="530" width="10" height="90" as="geometry" />
        </mxCell>
        <mxCell id="58" value="" style="fillColor=#CC4125;strokeColor=#660000" parent="1" vertex="1">
          <mxGeometry x="1350" y="540" width="10" height="70" as="geometry" />
        </mxCell>
        <mxCell id="60" value="&lt;&lt;create&gt;&gt;" style="edgeStyle=elbowEdgeStyle;elbow=vertical;verticalLabelPosition=top;verticalAlign=bottom;dashed=1" parent="1" source="49" target="55" edge="1">
          <mxGeometry x="901.25" y="322.5" width="100" height="100" as="geometry">
            <mxPoint x="1031.25" y="351.8942901234568" as="sourcePoint" />
            <mxPoint x="1148.75" y="351.8942901234568" as="targetPoint" />
            <Array as="points" />
          </mxGeometry>
        </mxCell>
        <mxCell id="61" value="&lt;&lt;ajax&gt;&gt;" style="edgeStyle=elbowEdgeStyle;elbow=vertical;verticalLabelPosition=top;verticalAlign=bottom" parent="1" source="49" target="57" edge="1">
          <mxGeometry x="1065" y="359.5" width="100" height="100" as="geometry">
            <mxPoint x="1044.7839506172838" y="359.5" as="sourcePoint" />
            <mxPoint x="1195" y="359.5" as="targetPoint" />
            <Array as="points" />
          </mxGeometry>
        </mxCell>
        <mxCell id="62" value="postComments()" style="edgeStyle=elbowEdgeStyle;elbow=vertical;verticalLabelPosition=top;verticalAlign=bottom" parent="1" edge="1">
          <mxGeometry x="1225" y="309.5" width="100" height="100" as="geometry">
            <mxPoint x="1147.5" y="542.5" as="sourcePoint" />
            <mxPoint x="1350" y="542.5" as="targetPoint" />
            <Array as="points" />
          </mxGeometry>
        </mxCell>
        <mxCell id="63" value="&lt;&lt;json&gt;&gt;" style="edgeStyle=elbowEdgeStyle;elbow=vertical;dashed=1;verticalLabelPosition=bottom;verticalAlign=top" parent="1" edge="1">
          <mxGeometry x="1075" y="396" width="100" height="100" as="geometry">
            <mxPoint x="1350" y="606.5" as="sourcePoint" />
            <mxPoint x="1147.5" y="606.5" as="targetPoint" />
            <Array as="points" />
          </mxGeometry>
        </mxCell>
        <mxCell id="64" value="&lt;&lt;service&gt;&gt;&#xa;:GimqService" style="shadow=1;fillColor=#A2C4C9;strokeColor=none" parent="1" vertex="1">
          <mxGeometry x="1302.5" y="60" width="105" height="50" as="geometry" />
        </mxCell>
        <mxCell id="65" value="" style="edgeStyle=none;endArrow=none;dashed=1" parent="1" source="64" target="58" edge="1">
          <mxGeometry x="1174.0711805555559" y="210" width="100" height="100" as="geometry">
            <mxPoint x="1222.5" y="115" as="sourcePoint" />
            <mxPoint x="1222.5" y="445" as="targetPoint" />
          </mxGeometry>
        </mxCell>
        <mxCell id="66" value="" style="fillColor=#CC4125;strokeColor=#660000" parent="1" vertex="1">
          <mxGeometry x="200" y="600" width="10" height="130" as="geometry" />
        </mxCell>
        <mxCell id="67" value="" style="edgeStyle=elbowEdgeStyle;elbow=vertical;dashed=1;verticalLabelPosition=bottom;verticalAlign=top" parent="1" edge="1">
          <mxGeometry x="507.50000000000006" y="664.3418209876543" width="100" height="100" as="geometry">
            <mxPoint x="342.5" y="549.5" as="sourcePoint" />
            <mxPoint x="210" y="549.5" as="targetPoint" />
            <Array as="points" />
          </mxGeometry>
        </mxCell>
        <mxCell id="68" value="&lt;&lt;callback&gt;&gt;" style="edgeStyle=elbowEdgeStyle;elbow=vertical;dashed=1;verticalLabelPosition=bottom;verticalAlign=bottom" parent="1" source="57" target="66" edge="1">
          <mxGeometry x="540" y="559.0779320987654" width="100" height="100" as="geometry">
            <mxPoint x="1010" y="551.7361111111111" as="sourcePoint" />
            <mxPoint x="362.49999999999994" y="551.7361111111111" as="targetPoint" />
            <Array as="points" />
          </mxGeometry>
        </mxCell>
        <mxCell id="71" value="rt submit_changes" style="rounded=1;fontStyle=1;fillColor=#FFD966;strokeColor=none" parent="1" vertex="1">
          <mxGeometry x="50" y="20" width="150" height="30" as="geometry" />
        </mxCell>
        <mxCell id="72" value="opt" style="rounded=1;fontStyle=1;fillColor=#FFD966;strokeColor=none" parent="1" vertex="1">
          <mxGeometry x="152.5" y="420" width="87.5" height="30" as="geometry" />
        </mxCell>
        <mxCell id="74" value="Handle errors from Gimq" style="fillColor=#BFC8DB" parent="1" vertex="1">
          <mxGeometry x="190" y="625" width="310" height="60.55555555555554" as="geometry" />
        </mxCell>
        <mxCell id="75" value="ref" style="rounded=1;fontStyle=1;fillColor=#FFD966;strokeColor=none" parent="1" vertex="1">
          <mxGeometry x="196.25" y="632.8935185185186" width="53.75" height="25" as="geometry" />
        </mxCell>
        <mxCell id="76" value="" style="align=left;fillColor=#BFC8DB" parent="1" vertex="1">
          <mxGeometry x="189.99999999999997" y="699.7222222222223" width="1201.1944444444443" height="60.55555555555554" as="geometry" />
        </mxCell>
        <mxCell id="77" value="ref" style="rounded=1;fontStyle=1;fillColor=#FFD966;strokeColor=none" parent="1" vertex="1">
          <mxGeometry x="196.24999999999997" y="707.6157407407409" width="53.75" height="25" as="geometry" />
        </mxCell>
        <mxCell id="78" value="Request all changes" style="text;align=left" parent="1" vertex="1">
          <mxGeometry x="268.05555555555554" y="720.1157407407408" width="351.80555555555554" height="26" as="geometry" />
        </mxCell>
        <mxCell id="82" value="" style="edgeStyle=elbowEdgeStyle;elbow=vertical;endArrow=none" parent="1" edge="1">
          <mxGeometry x="59.999999999999986" y="419.7106481481482" width="100" height="100" as="geometry">
            <mxPoint x="200" y="469.7106481481482" as="sourcePoint" />
            <mxPoint x="149.99999999999997" y="469.7106481481482" as="targetPoint" />
          </mxGeometry>
        </mxCell>
        <mxCell id="83" value="" style="edgeStyle=elbowEdgeStyle;elbow=vertical;endArrow=none" parent="1" edge="1">
          <mxGeometry x="60" y="499.71064814814815" width="100" height="100" as="geometry">
            <mxPoint x="200.00000000000003" y="549.7106481481482" as="sourcePoint" />
            <mxPoint x="150" y="549.7106481481482" as="targetPoint" />
          </mxGeometry>
        </mxCell>
        <mxCell id="84" value="" style="edgeStyle=elbowEdgeStyle;elbow=vertical;endArrow=none" parent="1" edge="1">
          <mxGeometry x="59.999999999999986" y="559.7106481481482" width="100" height="100" as="geometry">
            <mxPoint x="200" y="609.7106481481482" as="sourcePoint" />
            <mxPoint x="149.99999999999997" y="609.7106481481482" as="targetPoint" />
          </mxGeometry>
        </mxCell>
        <mxCell id="85" value="" style="edgeStyle=elbowEdgeStyle;elbow=vertical;endArrow=none" parent="1" edge="1">
          <mxGeometry x="49.99999999999999" y="649.4328703703704" width="100" height="100" as="geometry">
            <mxPoint x="190.00000000000003" y="699.4328703703704" as="sourcePoint" />
            <mxPoint x="140" y="699.4328703703704" as="targetPoint" />
          </mxGeometry>
        </mxCell>
        <mxCell id="86" value="" style="edgeStyle=elbowEdgeStyle;elbow=vertical;endArrow=none" parent="1" edge="1">
          <mxGeometry x="49.99999999999993" y="709.9884259259259" width="100" height="100" as="geometry">
            <mxPoint x="189.99999999999994" y="759.9884259259259" as="sourcePoint" />
            <mxPoint x="139.99999999999994" y="759.9884259259259" as="targetPoint" />
          </mxGeometry>
        </mxCell>
        <mxCell id="87" value="{5..50ms}" style="edgeStyle=elbowEdgeStyle;elbow=horizontal;startArrow=open;endArrow=open;labelPosition=left;align=right" parent="1" edge="1">
          <mxGeometry x="41.44675925925927" y="479.1666666666667" width="100" height="100" as="geometry">
            <mxPoint x="161.44675925925927" y="469.1666666666667" as="sourcePoint" />
            <mxPoint x="161.44675925925927" y="549.1666666666667" as="targetPoint" />
          </mxGeometry>
        </mxCell>
        <mxCell id="88" value="{1..500ms}" style="edgeStyle=elbowEdgeStyle;elbow=horizontal;startArrow=open;endArrow=open;labelPosition=left;align=right" parent="1" edge="1">
          <mxGeometry x="42.89351851851853" y="560" width="100" height="100" as="geometry">
            <mxPoint x="161.44675925925927" y="550" as="sourcePoint" />
            <mxPoint x="161.44675925925927" y="610" as="targetPoint" />
          </mxGeometry>
        </mxCell>
        <mxCell id="89" value="{10..50ms}" style="edgeStyle=elbowEdgeStyle;elbow=horizontal;startArrow=open;endArrow=open;labelPosition=left;align=right" parent="1" edge="1">
          <mxGeometry width="100" height="100" as="geometry">
            <mxPoint x="153.94675925925927" y="700.2777777777778" as="sourcePoint" />
            <mxPoint x="153.94675925925927" y="760.2777777777778" as="targetPoint" />
            <mxPoint x="-4.236111111111107" y="-0.2777777777777883" as="offset" />
          </mxGeometry>
        </mxCell>
        <mxCell id="3lxVymx66JOfYg7nJAj3-90" value=":Customer" style="shape=umlLifeline;participant=umlActor;perimeter=lifelinePerimeter;html=1;container=1;collapsible=0;recursiveResize=0;verticalAlign=top;spacingTop=36;outlineConnect=0;size=40;fillColor=#f8cecc;strokeColor=#b85450;" parent="1" vertex="1">
          <mxGeometry x="-1290" y="-440" width="20" height="590" as="geometry" />
        </mxCell>
        <mxCell id="3lxVymx66JOfYg7nJAj3-91" value="" style="html=1;points=[];perimeter=orthogonalPerimeter;fillColor=#f8cecc;strokeColor=#b85450;" parent="3lxVymx66JOfYg7nJAj3-90" vertex="1">
          <mxGeometry x="5" y="70" width="10" height="510" as="geometry" />
        </mxCell>
        <mxCell id="3lxVymx66JOfYg7nJAj3-92" value="Tekion UI" style="shape=umlLifeline;perimeter=lifelinePerimeter;whiteSpace=wrap;html=1;container=1;collapsible=0;recursiveResize=0;outlineConnect=0;fillColor=#b0e3e6;strokeColor=#0e8088;" parent="1" vertex="1">
          <mxGeometry x="-1150" y="-430" width="100" height="580" as="geometry" />
        </mxCell>
        <mxCell id="3lxVymx66JOfYg7nJAj3-93" value="" style="html=1;points=[];perimeter=orthogonalPerimeter;fillColor=#b0e3e6;strokeColor=#0e8088;" parent="3lxVymx66JOfYg7nJAj3-92" vertex="1">
          <mxGeometry x="45" y="90" width="10" height="40" as="geometry" />
        </mxCell>
        <mxCell id="3lxVymx66JOfYg7nJAj3-127" value="" style="html=1;points=[];perimeter=orthogonalPerimeter;fillColor=#b0e3e6;strokeColor=#0e8088;" parent="3lxVymx66JOfYg7nJAj3-92" vertex="1">
          <mxGeometry x="45" y="169" width="10" height="401" as="geometry" />
        </mxCell>
        <mxCell id="3lxVymx66JOfYg7nJAj3-129" value="3: Open Accessories Tab/Page" style="html=1;verticalAlign=bottom;endArrow=block;entryX=0;entryY=0;rounded=0;" parent="3lxVymx66JOfYg7nJAj3-92" edge="1">
          <mxGeometry relative="1" as="geometry">
            <mxPoint x="-125" y="169" as="sourcePoint" />
            <mxPoint x="45" y="169" as="targetPoint" />
          </mxGeometry>
        </mxCell>
        <mxCell id="3lxVymx66JOfYg7nJAj3-98" value="1: Open Checkout" style="html=1;verticalAlign=bottom;endArrow=block;entryX=0;entryY=0;rounded=0;" parent="1" edge="1">
          <mxGeometry relative="1" as="geometry">
            <mxPoint x="-1275" y="-328" as="sourcePoint" />
            <mxPoint as="offset" />
            <mxPoint x="-1105" y="-328" as="targetPoint" />
          </mxGeometry>
        </mxCell>
        <mxCell id="3lxVymx66JOfYg7nJAj3-99" value="Tekion BE" style="shape=umlLifeline;perimeter=lifelinePerimeter;whiteSpace=wrap;html=1;container=1;collapsible=0;recursiveResize=0;outlineConnect=0;fillColor=#dae8fc;strokeColor=#6c8ebf;" parent="1" vertex="1">
          <mxGeometry x="-930" y="-430" width="100" height="580" as="geometry" />
        </mxCell>
        <mxCell id="3lxVymx66JOfYg7nJAj3-100" value="" style="html=1;points=[];perimeter=orthogonalPerimeter;fillColor=#dae8fc;strokeColor=#6c8ebf;" parent="3lxVymx66JOfYg7nJAj3-99" vertex="1">
          <mxGeometry x="45" y="110" width="10" height="20" as="geometry" />
        </mxCell>
        <mxCell id="3lxVymx66JOfYg7nJAj3-130" value="" style="html=1;points=[];perimeter=orthogonalPerimeter;fillColor=#dae8fc;strokeColor=#6c8ebf;" parent="3lxVymx66JOfYg7nJAj3-99" vertex="1">
          <mxGeometry x="45" y="211" width="10" height="29" as="geometry" />
        </mxCell>
        <mxCell id="3lxVymx66JOfYg7nJAj3-131" style="edgeStyle=orthogonalEdgeStyle;rounded=0;orthogonalLoop=1;jettySize=auto;html=1;entryX=-0.127;entryY=0.063;entryDx=0;entryDy=0;entryPerimeter=0;startArrow=classic;startFill=1;" parent="3lxVymx66JOfYg7nJAj3-99" edge="1">
          <mxGeometry relative="1" as="geometry">
            <mxPoint x="-165" y="220" as="sourcePoint" />
            <Array as="points">
              <mxPoint x="44" y="220" />
            </Array>
            <mxPoint x="43.73000000000002" y="220.26" as="targetPoint" />
          </mxGeometry>
        </mxCell>
        <mxCell id="3lxVymx66JOfYg7nJAj3-132" value="5: Get JWE Token" style="edgeLabel;html=1;align=center;verticalAlign=middle;resizable=0;points=[];" parent="3lxVymx66JOfYg7nJAj3-131" vertex="1" connectable="0">
          <mxGeometry x="0.049" relative="1" as="geometry">
            <mxPoint y="-11" as="offset" />
          </mxGeometry>
        </mxCell>
        <mxCell id="3lxVymx66JOfYg7nJAj3-133" style="edgeStyle=orthogonalEdgeStyle;rounded=0;orthogonalLoop=1;jettySize=auto;html=1;startArrow=classic;startFill=1;" parent="3lxVymx66JOfYg7nJAj3-99" edge="1">
          <mxGeometry relative="1" as="geometry">
            <mxPoint x="-164" y="270" as="sourcePoint" />
            <Array as="points">
              <mxPoint x="320" y="270" />
              <mxPoint x="320" y="270" />
            </Array>
            <mxPoint x="485" y="270" as="targetPoint" />
          </mxGeometry>
        </mxCell>
        <mxCell id="3lxVymx66JOfYg7nJAj3-134" value="7: Render: IFrame" style="edgeLabel;html=1;align=center;verticalAlign=middle;resizable=0;points=[];" parent="3lxVymx66JOfYg7nJAj3-133" vertex="1" connectable="0">
          <mxGeometry x="0.049" relative="1" as="geometry">
            <mxPoint y="-11" as="offset" />
          </mxGeometry>
        </mxCell>
        <mxCell id="Vz_8QxTNZ0aKV-0dq6at-92" value="" style="html=1;points=[];perimeter=orthogonalPerimeter;fillColor=#dae8fc;strokeColor=#6c8ebf;" parent="3lxVymx66JOfYg7nJAj3-99" vertex="1">
          <mxGeometry x="45" y="162" width="10" height="20" as="geometry" />
        </mxCell>
        <mxCell id="Vz_8QxTNZ0aKV-0dq6at-114" value="" style="html=1;points=[];perimeter=orthogonalPerimeter;fillColor=#dae8fc;strokeColor=#6c8ebf;" parent="3lxVymx66JOfYg7nJAj3-99" vertex="1">
          <mxGeometry x="45" y="500" width="10" height="29" as="geometry" />
        </mxCell>
        <mxCell id="3lxVymx66JOfYg7nJAj3-114" value="Tekion APC" style="shape=umlLifeline;perimeter=lifelinePerimeter;whiteSpace=wrap;html=1;container=1;collapsible=0;recursiveResize=0;outlineConnect=0;fillColor=#e1d5e7;strokeColor=#9673a6;" parent="1" vertex="1">
          <mxGeometry x="-710" y="-430" width="100" height="580" as="geometry" />
        </mxCell>
        <mxCell id="3lxVymx66JOfYg7nJAj3-115" value="" style="html=1;points=[];perimeter=orthogonalPerimeter;fillColor=#e1d5e7;strokeColor=#9673a6;" parent="3lxVymx66JOfYg7nJAj3-114" vertex="1">
          <mxGeometry x="45" y="399" width="10" height="20" as="geometry" />
        </mxCell>
        <mxCell id="Vz_8QxTNZ0aKV-0dq6at-89" value="" style="html=1;points=[];perimeter=orthogonalPerimeter;fillColor=#e1d5e7;strokeColor=#9673a6;" parent="3lxVymx66JOfYg7nJAj3-114" vertex="1">
          <mxGeometry x="45" y="221" width="10" height="20" as="geometry" />
        </mxCell>
        <mxCell id="Vz_8QxTNZ0aKV-0dq6at-90" style="edgeStyle=orthogonalEdgeStyle;rounded=0;orthogonalLoop=1;jettySize=auto;html=1;entryX=-0.127;entryY=0.063;entryDx=0;entryDy=0;entryPerimeter=0;startArrow=classic;startFill=1;" parent="3lxVymx66JOfYg7nJAj3-114" edge="1">
          <mxGeometry relative="1" as="geometry">
            <mxPoint x="-165" y="228.5" as="sourcePoint" />
            <Array as="points">
              <mxPoint x="44" y="228.5" />
            </Array>
            <mxPoint x="44" y="228.5" as="targetPoint" />
          </mxGeometry>
        </mxCell>
        <mxCell id="Vz_8QxTNZ0aKV-0dq6at-91" value="6: Get JWE Token for required Payload" style="edgeLabel;html=1;align=center;verticalAlign=middle;resizable=0;points=[];" parent="Vz_8QxTNZ0aKV-0dq6at-90" vertex="1" connectable="0">
          <mxGeometry x="0.049" relative="1" as="geometry">
            <mxPoint x="-3" y="-11" as="offset" />
          </mxGeometry>
        </mxCell>
        <mxCell id="Vz_8QxTNZ0aKV-0dq6at-111" value="" style="html=1;points=[];perimeter=orthogonalPerimeter;fillColor=#e1d5e7;strokeColor=#9673a6;" parent="3lxVymx66JOfYg7nJAj3-114" vertex="1">
          <mxGeometry x="45" y="492" width="10" height="28" as="geometry" />
        </mxCell>
        <mxCell id="Vz_8QxTNZ0aKV-0dq6at-115" style="edgeStyle=orthogonalEdgeStyle;rounded=0;orthogonalLoop=1;jettySize=auto;html=1;entryX=-0.127;entryY=0.063;entryDx=0;entryDy=0;entryPerimeter=0;startArrow=classic;startFill=1;" parent="3lxVymx66JOfYg7nJAj3-114" edge="1">
          <mxGeometry relative="1" as="geometry">
            <mxPoint x="-164" y="512" as="sourcePoint" />
            <Array as="points">
              <mxPoint x="45" y="512" />
            </Array>
            <mxPoint x="45" y="512" as="targetPoint" />
          </mxGeometry>
        </mxCell>
        <mxCell id="Vz_8QxTNZ0aKV-0dq6at-116" value="15: Update Tekion Deal" style="edgeLabel;html=1;align=center;verticalAlign=middle;resizable=0;points=[];" parent="Vz_8QxTNZ0aKV-0dq6at-115" vertex="1" connectable="0">
          <mxGeometry x="0.049" relative="1" as="geometry">
            <mxPoint x="-3" y="-11" as="offset" />
          </mxGeometry>
        </mxCell>
        <mxCell id="3lxVymx66JOfYg7nJAj3-116" value="SI IFrame UI" style="shape=umlLifeline;perimeter=lifelinePerimeter;whiteSpace=wrap;html=1;container=1;collapsible=0;recursiveResize=0;outlineConnect=0;fillColor=#fad7ac;strokeColor=#b46504;" parent="1" vertex="1">
          <mxGeometry x="-490" y="-430" width="100" height="580" as="geometry" />
        </mxCell>
        <mxCell id="3lxVymx66JOfYg7nJAj3-117" value="" style="html=1;points=[];perimeter=orthogonalPerimeter;fillColor=#fad7ac;strokeColor=#b46504;" parent="3lxVymx66JOfYg7nJAj3-116" vertex="1">
          <mxGeometry x="45" y="267" width="10" height="113" as="geometry" />
        </mxCell>
        <mxCell id="Vz_8QxTNZ0aKV-0dq6at-105" value="" style="html=1;points=[];perimeter=orthogonalPerimeter;fillColor=#fad7ac;strokeColor=#b46504;" parent="3lxVymx66JOfYg7nJAj3-116" vertex="1">
          <mxGeometry x="45" y="427" width="10" height="53" as="geometry" />
        </mxCell>
        <mxCell id="Vz_8QxTNZ0aKV-0dq6at-117" value="" style="html=1;points=[];perimeter=orthogonalPerimeter;fillColor=#fad7ac;strokeColor=#b46504;" parent="3lxVymx66JOfYg7nJAj3-116" vertex="1">
          <mxGeometry x="45" y="524" width="10" height="30" as="geometry" />
        </mxCell>
        <mxCell id="3lxVymx66JOfYg7nJAj3-118" value="SI IFrame BE" style="shape=umlLifeline;perimeter=lifelinePerimeter;whiteSpace=wrap;html=1;container=1;collapsible=0;recursiveResize=0;outlineConnect=0;fillColor=#fad9d5;strokeColor=#ae4132;" parent="1" vertex="1">
          <mxGeometry x="-270" y="-430" width="100" height="580" as="geometry" />
        </mxCell>
        <mxCell id="3lxVymx66JOfYg7nJAj3-119" value="" style="html=1;points=[];perimeter=orthogonalPerimeter;fillColor=#fad9d5;strokeColor=#ae4132;" parent="3lxVymx66JOfYg7nJAj3-118" vertex="1">
          <mxGeometry x="45" y="360" width="10" height="60" as="geometry" />
        </mxCell>
        <mxCell id="Vz_8QxTNZ0aKV-0dq6at-108" value="" style="html=1;points=[];perimeter=orthogonalPerimeter;fillColor=#fad9d5;strokeColor=#ae4132;" parent="3lxVymx66JOfYg7nJAj3-118" vertex="1">
          <mxGeometry x="45" y="430" width="10" height="100" as="geometry" />
        </mxCell>
        <mxCell id="3lxVymx66JOfYg7nJAj3-123" style="edgeStyle=orthogonalEdgeStyle;rounded=0;orthogonalLoop=1;jettySize=auto;html=1;entryX=-0.127;entryY=0.063;entryDx=0;entryDy=0;entryPerimeter=0;startArrow=classic;startFill=1;" parent="1" target="3lxVymx66JOfYg7nJAj3-100" edge="1">
          <mxGeometry relative="1" as="geometry">
            <mxPoint x="-1095" y="-319" as="sourcePoint" />
            <Array as="points">
              <mxPoint x="-886" y="-319" />
            </Array>
          </mxGeometry>
        </mxCell>
        <mxCell id="3lxVymx66JOfYg7nJAj3-124" value="2: Get Deal data" style="edgeLabel;html=1;align=center;verticalAlign=middle;resizable=0;points=[];" parent="3lxVymx66JOfYg7nJAj3-123" vertex="1" connectable="0">
          <mxGeometry x="0.049" relative="1" as="geometry">
            <mxPoint y="-11" as="offset" />
          </mxGeometry>
        </mxCell>
        <mxCell id="Vz_8QxTNZ0aKV-0dq6at-93" style="edgeStyle=orthogonalEdgeStyle;rounded=0;orthogonalLoop=1;jettySize=auto;html=1;entryX=-0.127;entryY=0.063;entryDx=0;entryDy=0;entryPerimeter=0;startArrow=classic;startFill=1;" parent="1" edge="1">
          <mxGeometry relative="1" as="geometry">
            <mxPoint x="-1095" y="-258" as="sourcePoint" />
            <Array as="points">
              <mxPoint x="-886" y="-258" />
            </Array>
            <mxPoint x="-886" y="-258" as="targetPoint" />
          </mxGeometry>
        </mxCell>
        <mxCell id="Vz_8QxTNZ0aKV-0dq6at-94" value="4: Get Step UI Config (IFrame Spec)" style="edgeLabel;html=1;align=center;verticalAlign=middle;resizable=0;points=[];" parent="Vz_8QxTNZ0aKV-0dq6at-93" vertex="1" connectable="0">
          <mxGeometry x="0.049" relative="1" as="geometry">
            <mxPoint y="-11" as="offset" />
          </mxGeometry>
        </mxCell>
        <mxCell id="Vz_8QxTNZ0aKV-0dq6at-95" style="edgeStyle=orthogonalEdgeStyle;rounded=0;orthogonalLoop=1;jettySize=auto;html=1;startArrow=classic;startFill=1;dashed=1;endArrow=none;endFill=0;" parent="1" edge="1">
          <mxGeometry relative="1" as="geometry">
            <mxPoint x="-1094" y="-125" as="sourcePoint" />
            <Array as="points">
              <mxPoint x="-610" y="-125" />
              <mxPoint x="-610" y="-125" />
            </Array>
            <mxPoint x="-445" y="-125" as="targetPoint" />
          </mxGeometry>
        </mxCell>
        <mxCell id="Vz_8QxTNZ0aKV-0dq6at-96" value="8: Event: LOADED" style="edgeLabel;html=1;align=center;verticalAlign=middle;resizable=0;points=[];" parent="Vz_8QxTNZ0aKV-0dq6at-95" vertex="1" connectable="0">
          <mxGeometry x="0.049" relative="1" as="geometry">
            <mxPoint y="-11" as="offset" />
          </mxGeometry>
        </mxCell>
        <mxCell id="Vz_8QxTNZ0aKV-0dq6at-97" style="edgeStyle=orthogonalEdgeStyle;rounded=0;orthogonalLoop=1;jettySize=auto;html=1;startArrow=none;startFill=0;dashed=1;endArrow=classic;endFill=1;" parent="1" edge="1">
          <mxGeometry relative="1" as="geometry">
            <mxPoint x="-1093" y="-87" as="sourcePoint" />
            <Array as="points">
              <mxPoint x="-609" y="-87" />
              <mxPoint x="-609" y="-87" />
            </Array>
            <mxPoint x="-444" y="-87" as="targetPoint" />
          </mxGeometry>
        </mxCell>
        <mxCell id="Vz_8QxTNZ0aKV-0dq6at-98" value="9: Event: INITIAL_DATA&amp;nbsp; &amp;nbsp; (Parent page passes JWE to IFrame)" style="edgeLabel;html=1;align=center;verticalAlign=middle;resizable=0;points=[];" parent="Vz_8QxTNZ0aKV-0dq6at-97" vertex="1" connectable="0">
          <mxGeometry x="0.049" relative="1" as="geometry">
            <mxPoint y="-11" as="offset" />
          </mxGeometry>
        </mxCell>
        <mxCell id="Vz_8QxTNZ0aKV-0dq6at-99" style="edgeStyle=orthogonalEdgeStyle;rounded=0;orthogonalLoop=1;jettySize=auto;html=1;entryX=-0.127;entryY=0.063;entryDx=0;entryDy=0;entryPerimeter=0;startArrow=classic;startFill=1;" parent="1" edge="1">
          <mxGeometry relative="1" as="geometry">
            <mxPoint x="-434" y="-59" as="sourcePoint" />
            <Array as="points">
              <mxPoint x="-225" y="-59" />
            </Array>
            <mxPoint x="-225" y="-59" as="targetPoint" />
          </mxGeometry>
        </mxCell>
        <mxCell id="Vz_8QxTNZ0aKV-0dq6at-100" value="10: Get Payload from JWE" style="edgeLabel;html=1;align=center;verticalAlign=middle;resizable=0;points=[];" parent="Vz_8QxTNZ0aKV-0dq6at-99" vertex="1" connectable="0">
          <mxGeometry x="0.049" relative="1" as="geometry">
            <mxPoint x="-4" y="-11" as="offset" />
          </mxGeometry>
        </mxCell>
        <mxCell id="Vz_8QxTNZ0aKV-0dq6at-103" style="edgeStyle=orthogonalEdgeStyle;rounded=0;orthogonalLoop=1;jettySize=auto;html=1;startArrow=classic;startFill=1;exitX=0.8;exitY=0.55;exitDx=0;exitDy=0;exitPerimeter=0;" parent="1" edge="1">
          <mxGeometry relative="1" as="geometry">
            <mxPoint x="-652" y="-20" as="sourcePoint" />
            <Array as="points">
              <mxPoint x="-635" y="-20" />
            </Array>
            <mxPoint x="-228" y="-20" as="targetPoint" />
          </mxGeometry>
        </mxCell>
        <mxCell id="Vz_8QxTNZ0aKV-0dq6at-104" value="11: Get Payload by decrypting JWE" style="edgeLabel;html=1;align=center;verticalAlign=middle;resizable=0;points=[];" parent="Vz_8QxTNZ0aKV-0dq6at-103" vertex="1" connectable="0">
          <mxGeometry x="0.049" relative="1" as="geometry">
            <mxPoint x="-3" y="-11" as="offset" />
          </mxGeometry>
        </mxCell>
        <mxCell id="Vz_8QxTNZ0aKV-0dq6at-106" style="edgeStyle=orthogonalEdgeStyle;rounded=0;orthogonalLoop=1;jettySize=auto;html=1;entryX=-0.127;entryY=0.063;entryDx=0;entryDy=0;entryPerimeter=0;startArrow=classic;startFill=1;" parent="1" edge="1">
          <mxGeometry relative="1" as="geometry">
            <mxPoint x="-434" y="10" as="sourcePoint" />
            <Array as="points">
              <mxPoint x="-225" y="10" />
            </Array>
            <mxPoint x="-225" y="10" as="targetPoint" />
          </mxGeometry>
        </mxCell>
        <mxCell id="Vz_8QxTNZ0aKV-0dq6at-107" value="12: Get Accessories Data by VIN/MMY" style="edgeLabel;html=1;align=center;verticalAlign=middle;resizable=0;points=[];" parent="Vz_8QxTNZ0aKV-0dq6at-106" vertex="1" connectable="0">
          <mxGeometry x="0.049" relative="1" as="geometry">
            <mxPoint x="-4" y="-11" as="offset" />
          </mxGeometry>
        </mxCell>
        <mxCell id="Vz_8QxTNZ0aKV-0dq6at-109" style="edgeStyle=orthogonalEdgeStyle;rounded=0;orthogonalLoop=1;jettySize=auto;html=1;entryX=-0.127;entryY=0.063;entryDx=0;entryDy=0;entryPerimeter=0;startArrow=classic;startFill=1;" parent="1" edge="1">
          <mxGeometry relative="1" as="geometry">
            <mxPoint x="-434" y="40.47" as="sourcePoint" />
            <Array as="points">
              <mxPoint x="-225" y="40.47" />
            </Array>
            <mxPoint x="-225" y="40.47" as="targetPoint" />
          </mxGeometry>
        </mxCell>
        <mxCell id="Vz_8QxTNZ0aKV-0dq6at-110" value="13: Update User select/deselect option" style="edgeLabel;html=1;align=center;verticalAlign=middle;resizable=0;points=[];" parent="Vz_8QxTNZ0aKV-0dq6at-109" vertex="1" connectable="0">
          <mxGeometry x="0.049" relative="1" as="geometry">
            <mxPoint x="-4" y="-11" as="offset" />
          </mxGeometry>
        </mxCell>
        <mxCell id="Vz_8QxTNZ0aKV-0dq6at-112" style="edgeStyle=orthogonalEdgeStyle;rounded=0;orthogonalLoop=1;jettySize=auto;html=1;startArrow=classic;startFill=1;exitX=0.8;exitY=0.55;exitDx=0;exitDy=0;exitPerimeter=0;" parent="1" edge="1">
          <mxGeometry relative="1" as="geometry">
            <mxPoint x="-652" y="72" as="sourcePoint" />
            <Array as="points">
              <mxPoint x="-635" y="72" />
            </Array>
            <mxPoint x="-228" y="72" as="targetPoint" />
          </mxGeometry>
        </mxCell>
        <mxCell id="Vz_8QxTNZ0aKV-0dq6at-113" value="14: Update Tekion Deal with select/deselect Accessories option" style="edgeLabel;html=1;align=center;verticalAlign=middle;resizable=0;points=[];" parent="Vz_8QxTNZ0aKV-0dq6at-112" vertex="1" connectable="0">
          <mxGeometry x="0.049" relative="1" as="geometry">
            <mxPoint x="-3" y="-11" as="offset" />
          </mxGeometry>
        </mxCell>
        <mxCell id="Vz_8QxTNZ0aKV-0dq6at-120" style="edgeStyle=orthogonalEdgeStyle;rounded=0;orthogonalLoop=1;jettySize=auto;html=1;startArrow=classic;startFill=1;dashed=1;endArrow=none;endFill=0;" parent="1" edge="1">
          <mxGeometry relative="1" as="geometry">
            <mxPoint x="-1094" y="109" as="sourcePoint" />
            <Array as="points">
              <mxPoint x="-610" y="109" />
              <mxPoint x="-610" y="109" />
            </Array>
            <mxPoint x="-445" y="109" as="targetPoint" />
          </mxGeometry>
        </mxCell>
        <mxCell id="Vz_8QxTNZ0aKV-0dq6at-121" value="16: Event: UPDATED" style="edgeLabel;html=1;align=center;verticalAlign=middle;resizable=0;points=[];" parent="Vz_8QxTNZ0aKV-0dq6at-120" vertex="1" connectable="0">
          <mxGeometry x="0.049" relative="1" as="geometry">
            <mxPoint y="-11" as="offset" />
          </mxGeometry>
        </mxCell>
        <mxCell id="Vz_8QxTNZ0aKV-0dq6at-122" style="edgeStyle=orthogonalEdgeStyle;rounded=0;orthogonalLoop=1;jettySize=auto;html=1;entryX=-0.127;entryY=0.063;entryDx=0;entryDy=0;entryPerimeter=0;startArrow=classic;startFill=1;" parent="1" edge="1">
          <mxGeometry relative="1" as="geometry">
            <mxPoint x="-1094" y="134" as="sourcePoint" />
            <Array as="points">
              <mxPoint x="-885" y="134" />
            </Array>
            <mxPoint x="-885.27" y="134.26" as="targetPoint" />
          </mxGeometry>
        </mxCell>
        <mxCell id="Vz_8QxTNZ0aKV-0dq6at-123" value="17: Get Updated Deal Data&amp;nbsp;" style="edgeLabel;html=1;align=center;verticalAlign=middle;resizable=0;points=[];" parent="Vz_8QxTNZ0aKV-0dq6at-122" vertex="1" connectable="0">
          <mxGeometry x="0.049" relative="1" as="geometry">
            <mxPoint y="-11" as="offset" />
          </mxGeometry>
        </mxCell>
        <mxCell id="Vz_8QxTNZ0aKV-0dq6at-124" value="" style="html=1;points=[];perimeter=orthogonalPerimeter;fillColor=#dae8fc;strokeColor=#6c8ebf;" parent="1" vertex="1">
          <mxGeometry x="-885" y="124" width="10" height="20" as="geometry" />
        </mxCell>
        <mxCell id="juS5NUNLmUltaaD-D1dk-89" value="Extensibility HLD Flow" style="shape=umlFrame;whiteSpace=wrap;html=1;width=120;height=30;boundedLbl=1;verticalAlign=middle;align=left;spacingLeft=5;fillColor=#f5f5f5;fontColor=#333333;strokeColor=#666666;" vertex="1" parent="1">
          <mxGeometry x="-2270" y="550" width="1260" height="650" as="geometry" />
        </mxCell>
        <mxCell id="juS5NUNLmUltaaD-D1dk-90" value=":Customer" style="shape=umlLifeline;participant=umlActor;perimeter=lifelinePerimeter;html=1;container=1;collapsible=0;recursiveResize=0;verticalAlign=top;spacingTop=36;outlineConnect=0;size=40;fillColor=#f8cecc;strokeColor=#b85450;" vertex="1" parent="1">
          <mxGeometry x="-2180" y="590" width="20" height="590" as="geometry" />
        </mxCell>
        <mxCell id="juS5NUNLmUltaaD-D1dk-91" value="" style="html=1;points=[];perimeter=orthogonalPerimeter;fillColor=#f8cecc;strokeColor=#b85450;" vertex="1" parent="juS5NUNLmUltaaD-D1dk-90">
          <mxGeometry x="5" y="70" width="10" height="510" as="geometry" />
        </mxCell>
        <mxCell id="juS5NUNLmUltaaD-D1dk-92" value="Tekion UI" style="shape=umlLifeline;perimeter=lifelinePerimeter;whiteSpace=wrap;html=1;container=1;collapsible=0;recursiveResize=0;outlineConnect=0;fillColor=#b0e3e6;strokeColor=#0e8088;" vertex="1" parent="1">
          <mxGeometry x="-2040" y="600" width="100" height="580" as="geometry" />
        </mxCell>
        <mxCell id="juS5NUNLmUltaaD-D1dk-93" value="" style="html=1;points=[];perimeter=orthogonalPerimeter;fillColor=#b0e3e6;strokeColor=#0e8088;" vertex="1" parent="juS5NUNLmUltaaD-D1dk-92">
          <mxGeometry x="45" y="90" width="10" height="40" as="geometry" />
        </mxCell>
        <mxCell id="juS5NUNLmUltaaD-D1dk-94" value="" style="html=1;points=[];perimeter=orthogonalPerimeter;fillColor=#b0e3e6;strokeColor=#0e8088;" vertex="1" parent="juS5NUNLmUltaaD-D1dk-92">
          <mxGeometry x="45" y="169" width="10" height="401" as="geometry" />
        </mxCell>
        <mxCell id="juS5NUNLmUltaaD-D1dk-95" value="3: Step Page (Accessories Page)" style="html=1;verticalAlign=bottom;endArrow=block;entryX=0;entryY=0;rounded=0;" edge="1" parent="juS5NUNLmUltaaD-D1dk-92">
          <mxGeometry x="-0.0028" relative="1" as="geometry">
            <mxPoint x="-125" y="169" as="sourcePoint" />
            <mxPoint x="45" y="169" as="targetPoint" />
            <mxPoint as="offset" />
          </mxGeometry>
        </mxCell>
        <mxCell id="juS5NUNLmUltaaD-D1dk-96" value="1: Open Checkout" style="html=1;verticalAlign=bottom;endArrow=block;entryX=0;entryY=0;rounded=0;" edge="1" parent="1">
          <mxGeometry relative="1" as="geometry">
            <mxPoint x="-2165" y="702" as="sourcePoint" />
            <mxPoint as="offset" />
            <mxPoint x="-1995" y="702" as="targetPoint" />
          </mxGeometry>
        </mxCell>
        <mxCell id="juS5NUNLmUltaaD-D1dk-97" value="Tekion BE" style="shape=umlLifeline;perimeter=lifelinePerimeter;whiteSpace=wrap;html=1;container=1;collapsible=0;recursiveResize=0;outlineConnect=0;fillColor=#dae8fc;strokeColor=#6c8ebf;" vertex="1" parent="1">
          <mxGeometry x="-1820" y="600" width="100" height="580" as="geometry" />
        </mxCell>
        <mxCell id="juS5NUNLmUltaaD-D1dk-98" value="" style="html=1;points=[];perimeter=orthogonalPerimeter;fillColor=#dae8fc;strokeColor=#6c8ebf;" vertex="1" parent="juS5NUNLmUltaaD-D1dk-97">
          <mxGeometry x="45" y="110" width="10" height="20" as="geometry" />
        </mxCell>
        <mxCell id="juS5NUNLmUltaaD-D1dk-99" value="" style="html=1;points=[];perimeter=orthogonalPerimeter;fillColor=#dae8fc;strokeColor=#6c8ebf;" vertex="1" parent="juS5NUNLmUltaaD-D1dk-97">
          <mxGeometry x="45" y="211" width="10" height="29" as="geometry" />
        </mxCell>
        <mxCell id="juS5NUNLmUltaaD-D1dk-100" style="edgeStyle=orthogonalEdgeStyle;rounded=0;orthogonalLoop=1;jettySize=auto;html=1;entryX=-0.127;entryY=0.063;entryDx=0;entryDy=0;entryPerimeter=0;startArrow=classic;startFill=1;" edge="1" parent="juS5NUNLmUltaaD-D1dk-97">
          <mxGeometry relative="1" as="geometry">
            <mxPoint x="-165" y="220" as="sourcePoint" />
            <Array as="points">
              <mxPoint x="44" y="220" />
            </Array>
            <mxPoint x="43.73000000000002" y="220.26" as="targetPoint" />
          </mxGeometry>
        </mxCell>
        <mxCell id="juS5NUNLmUltaaD-D1dk-101" value="5: Get Deal Context" style="edgeLabel;html=1;align=center;verticalAlign=middle;resizable=0;points=[];" vertex="1" connectable="0" parent="juS5NUNLmUltaaD-D1dk-100">
          <mxGeometry x="0.049" relative="1" as="geometry">
            <mxPoint y="-11" as="offset" />
          </mxGeometry>
        </mxCell>
        <mxCell id="juS5NUNLmUltaaD-D1dk-102" style="edgeStyle=orthogonalEdgeStyle;rounded=0;orthogonalLoop=1;jettySize=auto;html=1;startArrow=classic;startFill=1;" edge="1" parent="juS5NUNLmUltaaD-D1dk-97">
          <mxGeometry relative="1" as="geometry">
            <mxPoint x="-164" y="270" as="sourcePoint" />
            <Array as="points">
              <mxPoint x="320" y="270" />
              <mxPoint x="320" y="270" />
            </Array>
            <mxPoint x="485" y="270" as="targetPoint" />
          </mxGeometry>
        </mxCell>
        <mxCell id="juS5NUNLmUltaaD-D1dk-103" value="7: Render: IFrame" style="edgeLabel;html=1;align=center;verticalAlign=middle;resizable=0;points=[];" vertex="1" connectable="0" parent="juS5NUNLmUltaaD-D1dk-102">
          <mxGeometry x="0.049" relative="1" as="geometry">
            <mxPoint y="-11" as="offset" />
          </mxGeometry>
        </mxCell>
        <mxCell id="juS5NUNLmUltaaD-D1dk-104" value="" style="html=1;points=[];perimeter=orthogonalPerimeter;fillColor=#dae8fc;strokeColor=#6c8ebf;" vertex="1" parent="juS5NUNLmUltaaD-D1dk-97">
          <mxGeometry x="45" y="162" width="10" height="20" as="geometry" />
        </mxCell>
        <mxCell id="juS5NUNLmUltaaD-D1dk-105" value="" style="html=1;points=[];perimeter=orthogonalPerimeter;fillColor=#dae8fc;strokeColor=#6c8ebf;" vertex="1" parent="juS5NUNLmUltaaD-D1dk-97">
          <mxGeometry x="45" y="500" width="10" height="29" as="geometry" />
        </mxCell>
        <mxCell id="juS5NUNLmUltaaD-D1dk-146" value="" style="html=1;points=[];perimeter=orthogonalPerimeter;fillColor=#dae8fc;strokeColor=#6c8ebf;" vertex="1" parent="juS5NUNLmUltaaD-D1dk-97">
          <mxGeometry x="45" y="410" width="10" height="29" as="geometry" />
        </mxCell>
        <mxCell id="juS5NUNLmUltaaD-D1dk-106" value="Tekion APC" style="shape=umlLifeline;perimeter=lifelinePerimeter;whiteSpace=wrap;html=1;container=1;collapsible=0;recursiveResize=0;outlineConnect=0;fillColor=#e1d5e7;strokeColor=#9673a6;" vertex="1" parent="1">
          <mxGeometry x="-1600" y="600" width="100" height="580" as="geometry" />
        </mxCell>
        <mxCell id="juS5NUNLmUltaaD-D1dk-107" value="" style="html=1;points=[];perimeter=orthogonalPerimeter;fillColor=#e1d5e7;strokeColor=#9673a6;" vertex="1" parent="juS5NUNLmUltaaD-D1dk-106">
          <mxGeometry x="45" y="399" width="10" height="20" as="geometry" />
        </mxCell>
        <mxCell id="juS5NUNLmUltaaD-D1dk-111" value="" style="html=1;points=[];perimeter=orthogonalPerimeter;fillColor=#e1d5e7;strokeColor=#9673a6;" vertex="1" parent="juS5NUNLmUltaaD-D1dk-106">
          <mxGeometry x="45" y="492" width="10" height="28" as="geometry" />
        </mxCell>
        <mxCell id="juS5NUNLmUltaaD-D1dk-112" style="edgeStyle=orthogonalEdgeStyle;rounded=0;orthogonalLoop=1;jettySize=auto;html=1;entryX=-0.127;entryY=0.063;entryDx=0;entryDy=0;entryPerimeter=0;startArrow=classic;startFill=1;" edge="1" parent="juS5NUNLmUltaaD-D1dk-106">
          <mxGeometry relative="1" as="geometry">
            <mxPoint x="-164" y="512" as="sourcePoint" />
            <Array as="points">
              <mxPoint x="45" y="512" />
            </Array>
            <mxPoint x="45" y="512" as="targetPoint" />
          </mxGeometry>
        </mxCell>
        <mxCell id="juS5NUNLmUltaaD-D1dk-113" value="16: Update Tekion Deal" style="edgeLabel;html=1;align=center;verticalAlign=middle;resizable=0;points=[];" vertex="1" connectable="0" parent="juS5NUNLmUltaaD-D1dk-112">
          <mxGeometry x="0.049" relative="1" as="geometry">
            <mxPoint x="-3" y="-11" as="offset" />
          </mxGeometry>
        </mxCell>
        <mxCell id="juS5NUNLmUltaaD-D1dk-114" value="SI IFrame UI" style="shape=umlLifeline;perimeter=lifelinePerimeter;whiteSpace=wrap;html=1;container=1;collapsible=0;recursiveResize=0;outlineConnect=0;fillColor=#fad7ac;strokeColor=#b46504;" vertex="1" parent="1">
          <mxGeometry x="-1380" y="600" width="100" height="580" as="geometry" />
        </mxCell>
        <mxCell id="juS5NUNLmUltaaD-D1dk-115" value="" style="html=1;points=[];perimeter=orthogonalPerimeter;fillColor=#fad7ac;strokeColor=#b46504;" vertex="1" parent="juS5NUNLmUltaaD-D1dk-114">
          <mxGeometry x="45" y="267" width="10" height="113" as="geometry" />
        </mxCell>
        <mxCell id="juS5NUNLmUltaaD-D1dk-116" value="" style="html=1;points=[];perimeter=orthogonalPerimeter;fillColor=#fad7ac;strokeColor=#b46504;" vertex="1" parent="juS5NUNLmUltaaD-D1dk-114">
          <mxGeometry x="45" y="427" width="10" height="53" as="geometry" />
        </mxCell>
        <mxCell id="juS5NUNLmUltaaD-D1dk-117" value="" style="html=1;points=[];perimeter=orthogonalPerimeter;fillColor=#fad7ac;strokeColor=#b46504;" vertex="1" parent="juS5NUNLmUltaaD-D1dk-114">
          <mxGeometry x="45" y="524" width="10" height="30" as="geometry" />
        </mxCell>
        <mxCell id="juS5NUNLmUltaaD-D1dk-118" value="SI IFrame BE" style="shape=umlLifeline;perimeter=lifelinePerimeter;whiteSpace=wrap;html=1;container=1;collapsible=0;recursiveResize=0;outlineConnect=0;fillColor=#fad9d5;strokeColor=#ae4132;" vertex="1" parent="1">
          <mxGeometry x="-1160" y="600" width="100" height="580" as="geometry" />
        </mxCell>
        <mxCell id="juS5NUNLmUltaaD-D1dk-119" value="" style="html=1;points=[];perimeter=orthogonalPerimeter;fillColor=#fad9d5;strokeColor=#ae4132;" vertex="1" parent="juS5NUNLmUltaaD-D1dk-118">
          <mxGeometry x="45" y="360" width="10" height="60" as="geometry" />
        </mxCell>
        <mxCell id="juS5NUNLmUltaaD-D1dk-120" value="" style="html=1;points=[];perimeter=orthogonalPerimeter;fillColor=#fad9d5;strokeColor=#ae4132;" vertex="1" parent="juS5NUNLmUltaaD-D1dk-118">
          <mxGeometry x="45" y="430" width="10" height="100" as="geometry" />
        </mxCell>
        <mxCell id="juS5NUNLmUltaaD-D1dk-121" style="edgeStyle=orthogonalEdgeStyle;rounded=0;orthogonalLoop=1;jettySize=auto;html=1;entryX=-0.127;entryY=0.063;entryDx=0;entryDy=0;entryPerimeter=0;startArrow=classic;startFill=1;" edge="1" parent="1" target="juS5NUNLmUltaaD-D1dk-98">
          <mxGeometry relative="1" as="geometry">
            <mxPoint x="-1985" y="711" as="sourcePoint" />
            <Array as="points">
              <mxPoint x="-1776" y="711" />
            </Array>
          </mxGeometry>
        </mxCell>
        <mxCell id="juS5NUNLmUltaaD-D1dk-122" value="2: Get Deal data" style="edgeLabel;html=1;align=center;verticalAlign=middle;resizable=0;points=[];" vertex="1" connectable="0" parent="juS5NUNLmUltaaD-D1dk-121">
          <mxGeometry x="0.049" relative="1" as="geometry">
            <mxPoint y="-11" as="offset" />
          </mxGeometry>
        </mxCell>
        <mxCell id="juS5NUNLmUltaaD-D1dk-123" style="edgeStyle=orthogonalEdgeStyle;rounded=0;orthogonalLoop=1;jettySize=auto;html=1;entryX=-0.127;entryY=0.063;entryDx=0;entryDy=0;entryPerimeter=0;startArrow=classic;startFill=1;" edge="1" parent="1">
          <mxGeometry relative="1" as="geometry">
            <mxPoint x="-1985" y="772" as="sourcePoint" />
            <Array as="points">
              <mxPoint x="-1776" y="772" />
            </Array>
            <mxPoint x="-1776" y="772" as="targetPoint" />
          </mxGeometry>
        </mxCell>
        <mxCell id="juS5NUNLmUltaaD-D1dk-124" value="4: Get Step UI Config (IFrame Spec)" style="edgeLabel;html=1;align=center;verticalAlign=middle;resizable=0;points=[];" vertex="1" connectable="0" parent="juS5NUNLmUltaaD-D1dk-123">
          <mxGeometry x="0.049" relative="1" as="geometry">
            <mxPoint y="-11" as="offset" />
          </mxGeometry>
        </mxCell>
        <mxCell id="juS5NUNLmUltaaD-D1dk-125" style="edgeStyle=orthogonalEdgeStyle;rounded=0;orthogonalLoop=1;jettySize=auto;html=1;startArrow=classic;startFill=1;dashed=1;endArrow=none;endFill=0;" edge="1" parent="1">
          <mxGeometry relative="1" as="geometry">
            <mxPoint x="-1984" y="905" as="sourcePoint" />
            <Array as="points">
              <mxPoint x="-1500" y="905" />
              <mxPoint x="-1500" y="905" />
            </Array>
            <mxPoint x="-1335" y="905" as="targetPoint" />
          </mxGeometry>
        </mxCell>
        <mxCell id="juS5NUNLmUltaaD-D1dk-126" value="8: Event: LOADED" style="edgeLabel;html=1;align=center;verticalAlign=middle;resizable=0;points=[];" vertex="1" connectable="0" parent="juS5NUNLmUltaaD-D1dk-125">
          <mxGeometry x="0.049" relative="1" as="geometry">
            <mxPoint y="-11" as="offset" />
          </mxGeometry>
        </mxCell>
        <mxCell id="juS5NUNLmUltaaD-D1dk-127" style="edgeStyle=orthogonalEdgeStyle;rounded=0;orthogonalLoop=1;jettySize=auto;html=1;startArrow=none;startFill=0;dashed=1;endArrow=classic;endFill=1;" edge="1" parent="1">
          <mxGeometry relative="1" as="geometry">
            <mxPoint x="-1983" y="943" as="sourcePoint" />
            <Array as="points">
              <mxPoint x="-1499" y="943" />
              <mxPoint x="-1499" y="943" />
            </Array>
            <mxPoint x="-1334" y="943" as="targetPoint" />
          </mxGeometry>
        </mxCell>
        <mxCell id="juS5NUNLmUltaaD-D1dk-128" value="9: Event: INITIAL_DATA&amp;nbsp; &amp;nbsp; (Parent page passes Context Token to IFrame)" style="edgeLabel;html=1;align=center;verticalAlign=middle;resizable=0;points=[];" vertex="1" connectable="0" parent="juS5NUNLmUltaaD-D1dk-127">
          <mxGeometry x="0.049" relative="1" as="geometry">
            <mxPoint y="-11" as="offset" />
          </mxGeometry>
        </mxCell>
        <mxCell id="juS5NUNLmUltaaD-D1dk-129" style="edgeStyle=orthogonalEdgeStyle;rounded=0;orthogonalLoop=1;jettySize=auto;html=1;entryX=-0.127;entryY=0.063;entryDx=0;entryDy=0;entryPerimeter=0;startArrow=classic;startFill=1;" edge="1" parent="1">
          <mxGeometry relative="1" as="geometry">
            <mxPoint x="-1324" y="971" as="sourcePoint" />
            <Array as="points">
              <mxPoint x="-1115" y="971" />
            </Array>
            <mxPoint x="-1115" y="971" as="targetPoint" />
          </mxGeometry>
        </mxCell>
        <mxCell id="juS5NUNLmUltaaD-D1dk-130" value="10: Get Context Payload by Context ID" style="edgeLabel;html=1;align=center;verticalAlign=middle;resizable=0;points=[];" vertex="1" connectable="0" parent="juS5NUNLmUltaaD-D1dk-129">
          <mxGeometry x="0.049" relative="1" as="geometry">
            <mxPoint x="-4" y="-11" as="offset" />
          </mxGeometry>
        </mxCell>
        <mxCell id="juS5NUNLmUltaaD-D1dk-131" style="edgeStyle=orthogonalEdgeStyle;rounded=0;orthogonalLoop=1;jettySize=auto;html=1;startArrow=classic;startFill=1;exitX=0.8;exitY=0.55;exitDx=0;exitDy=0;exitPerimeter=0;" edge="1" parent="1">
          <mxGeometry relative="1" as="geometry">
            <mxPoint x="-1542" y="1010" as="sourcePoint" />
            <Array as="points">
              <mxPoint x="-1525" y="1010" />
            </Array>
            <mxPoint x="-1118" y="1010" as="targetPoint" />
          </mxGeometry>
        </mxCell>
        <mxCell id="juS5NUNLmUltaaD-D1dk-132" value="11: Get Context Payload by Context ID" style="edgeLabel;html=1;align=center;verticalAlign=middle;resizable=0;points=[];" vertex="1" connectable="0" parent="juS5NUNLmUltaaD-D1dk-131">
          <mxGeometry x="0.049" relative="1" as="geometry">
            <mxPoint x="-3" y="-11" as="offset" />
          </mxGeometry>
        </mxCell>
        <mxCell id="juS5NUNLmUltaaD-D1dk-133" style="edgeStyle=orthogonalEdgeStyle;rounded=0;orthogonalLoop=1;jettySize=auto;html=1;entryX=-0.127;entryY=0.063;entryDx=0;entryDy=0;entryPerimeter=0;startArrow=classic;startFill=1;" edge="1" parent="1">
          <mxGeometry relative="1" as="geometry">
            <mxPoint x="-1324" y="1040" as="sourcePoint" />
            <Array as="points">
              <mxPoint x="-1115" y="1040" />
            </Array>
            <mxPoint x="-1115" y="1040" as="targetPoint" />
          </mxGeometry>
        </mxCell>
        <mxCell id="juS5NUNLmUltaaD-D1dk-134" value="13: From Deal Context Get Accessories Data by VIN/MMY" style="edgeLabel;html=1;align=center;verticalAlign=middle;resizable=0;points=[];" vertex="1" connectable="0" parent="juS5NUNLmUltaaD-D1dk-133">
          <mxGeometry x="0.049" relative="1" as="geometry">
            <mxPoint x="-4" y="-11" as="offset" />
          </mxGeometry>
        </mxCell>
        <mxCell id="juS5NUNLmUltaaD-D1dk-135" style="edgeStyle=orthogonalEdgeStyle;rounded=0;orthogonalLoop=1;jettySize=auto;html=1;entryX=-0.127;entryY=0.063;entryDx=0;entryDy=0;entryPerimeter=0;startArrow=classic;startFill=1;" edge="1" parent="1">
          <mxGeometry relative="1" as="geometry">
            <mxPoint x="-1324" y="1070.47" as="sourcePoint" />
            <Array as="points">
              <mxPoint x="-1115" y="1070.47" />
            </Array>
            <mxPoint x="-1115" y="1070.47" as="targetPoint" />
          </mxGeometry>
        </mxCell>
        <mxCell id="juS5NUNLmUltaaD-D1dk-136" value="14: On user selection Update Accessories data and Deal" style="edgeLabel;html=1;align=center;verticalAlign=middle;resizable=0;points=[];" vertex="1" connectable="0" parent="juS5NUNLmUltaaD-D1dk-135">
          <mxGeometry x="0.049" relative="1" as="geometry">
            <mxPoint x="-4" y="-11" as="offset" />
          </mxGeometry>
        </mxCell>
        <mxCell id="juS5NUNLmUltaaD-D1dk-137" style="edgeStyle=orthogonalEdgeStyle;rounded=0;orthogonalLoop=1;jettySize=auto;html=1;startArrow=classic;startFill=1;exitX=0.8;exitY=0.55;exitDx=0;exitDy=0;exitPerimeter=0;" edge="1" parent="1">
          <mxGeometry relative="1" as="geometry">
            <mxPoint x="-1542" y="1102" as="sourcePoint" />
            <Array as="points">
              <mxPoint x="-1525" y="1102" />
            </Array>
            <mxPoint x="-1118" y="1102" as="targetPoint" />
          </mxGeometry>
        </mxCell>
        <mxCell id="juS5NUNLmUltaaD-D1dk-138" value="15: Update Tekion Deal with select/deselect Accessories option" style="edgeLabel;html=1;align=center;verticalAlign=middle;resizable=0;points=[];" vertex="1" connectable="0" parent="juS5NUNLmUltaaD-D1dk-137">
          <mxGeometry x="0.049" relative="1" as="geometry">
            <mxPoint x="-3" y="-11" as="offset" />
          </mxGeometry>
        </mxCell>
        <mxCell id="juS5NUNLmUltaaD-D1dk-139" style="edgeStyle=orthogonalEdgeStyle;rounded=0;orthogonalLoop=1;jettySize=auto;html=1;startArrow=classic;startFill=1;dashed=1;endArrow=none;endFill=0;" edge="1" parent="1">
          <mxGeometry relative="1" as="geometry">
            <mxPoint x="-1984" y="1139" as="sourcePoint" />
            <Array as="points">
              <mxPoint x="-1500" y="1139" />
              <mxPoint x="-1500" y="1139" />
            </Array>
            <mxPoint x="-1335" y="1139" as="targetPoint" />
          </mxGeometry>
        </mxCell>
        <mxCell id="juS5NUNLmUltaaD-D1dk-140" value="16: Event: UPDATED" style="edgeLabel;html=1;align=center;verticalAlign=middle;resizable=0;points=[];" vertex="1" connectable="0" parent="juS5NUNLmUltaaD-D1dk-139">
          <mxGeometry x="0.049" relative="1" as="geometry">
            <mxPoint y="-11" as="offset" />
          </mxGeometry>
        </mxCell>
        <mxCell id="juS5NUNLmUltaaD-D1dk-141" style="edgeStyle=orthogonalEdgeStyle;rounded=0;orthogonalLoop=1;jettySize=auto;html=1;entryX=-0.127;entryY=0.063;entryDx=0;entryDy=0;entryPerimeter=0;startArrow=classic;startFill=1;" edge="1" parent="1">
          <mxGeometry relative="1" as="geometry">
            <mxPoint x="-1984" y="1164" as="sourcePoint" />
            <Array as="points">
              <mxPoint x="-1775" y="1164" />
            </Array>
            <mxPoint x="-1775.27" y="1164.26" as="targetPoint" />
          </mxGeometry>
        </mxCell>
        <mxCell id="juS5NUNLmUltaaD-D1dk-142" value="17: Get Updated Deal Data&amp;nbsp;" style="edgeLabel;html=1;align=center;verticalAlign=middle;resizable=0;points=[];" vertex="1" connectable="0" parent="juS5NUNLmUltaaD-D1dk-141">
          <mxGeometry x="0.049" relative="1" as="geometry">
            <mxPoint y="-11" as="offset" />
          </mxGeometry>
        </mxCell>
        <mxCell id="juS5NUNLmUltaaD-D1dk-143" value="" style="html=1;points=[];perimeter=orthogonalPerimeter;fillColor=#dae8fc;strokeColor=#6c8ebf;" vertex="1" parent="1">
          <mxGeometry x="-1775" y="1154" width="10" height="20" as="geometry" />
        </mxCell>
        <mxCell id="juS5NUNLmUltaaD-D1dk-144" style="edgeStyle=orthogonalEdgeStyle;rounded=0;orthogonalLoop=1;jettySize=auto;html=1;entryX=-0.127;entryY=0.063;entryDx=0;entryDy=0;entryPerimeter=0;startArrow=classic;startFill=1;" edge="1" parent="1">
          <mxGeometry relative="1" as="geometry">
            <mxPoint x="-1765" y="1020" as="sourcePoint" />
            <Array as="points">
              <mxPoint x="-1556" y="1020" />
            </Array>
            <mxPoint x="-1556" y="1020" as="targetPoint" />
          </mxGeometry>
        </mxCell>
        <mxCell id="juS5NUNLmUltaaD-D1dk-145" value="12: Return the Deal Payload" style="edgeLabel;html=1;align=center;verticalAlign=middle;resizable=0;points=[];" vertex="1" connectable="0" parent="juS5NUNLmUltaaD-D1dk-144">
          <mxGeometry x="0.049" relative="1" as="geometry">
            <mxPoint x="-3" y="-11" as="offset" />
          </mxGeometry>
        </mxCell>
      </root>
    </mxGraphModel>
  </diagram>
</mxfile>
